<?xml version="1.0" standalone="no"?>
<!DOCTYPE svg PUBLIC "-//W3C//DTD SVG 20010904//EN"
 "http://www.w3.org/TR/2001/REC-SVG-20010904/DTD/svg10.dtd">
<svg version="1.0" xmlns="http://www.w3.org/2000/svg"
 width="316.000000pt" height="381.000000pt" viewBox="0 0 316.000000 381.000000"
 preserveAspectRatio="xMidYMid meet">
<metadata>
Created by potrace 1.13, written by Peter Selinger 2001-2015
</metadata>
<g transform="translate(0.000000,381.000000) scale(0.100000,-0.100000)"
fill="#000000" stroke="none">
<path d="M1512 3735 c-249 -39 -522 -197 -802 -463 -69 -67 -87 -79 -99 -69
-12 10 -14 9 -8 -6 5 -14 -9 -27 -66 -63 -214 -137 -329 -273 -396 -471 -29
-88 -61 -278 -61 -370 0 -83 29 -269 56 -362 18 -62 78 -221 100 -263 18 -35
27 -35 69 -2 19 14 39 23 45 19 5 -3 24 -34 40 -68 84 -168 265 -380 397 -464
15 -9 30 -21 33 -24 6 -8 158 -99 166 -99 3 0 3 3 1 8 -11 17 56 322 73 332 7
4 -11 5 -38 2 -136 -13 -252 94 -254 235 -1 63 23 107 78 146 33 23 51 28 109
29 46 2 79 -3 96 -12 15 -8 41 -23 58 -33 18 -10 31 -13 31 -7 0 6 -13 16 -30
21 l-30 11 0 171 c0 95 4 177 8 184 17 27 445 222 676 309 171 64 159 53 135
122 -64 181 -105 322 -95 322 28 0 180 -113 272 -202 l100 -97 65 20 c35 11
82 26 105 34 l40 13 -4 -57 c-2 -31 1 -67 6 -81 8 -19 9 -12 5 32 -7 73 1 102
32 116 32 15 82 16 90 2 3 -5 11 -10 18 -10 6 0 2 6 -9 14 -10 8 -17 16 -14
19 8 7 195 57 212 57 9 0 18 -6 21 -12 2 -7 3 -5 2 4 -3 19 23 30 123 50 42 8
62 17 62 27 0 29 -120 260 -188 362 -83 123 -218 279 -287 331 -100 76 -249
151 -400 204 -147 52 -363 67 -543 39z m-444 -1792 c-3 -135 -5 -157 -18 -154
-38 9 -119 7 -163 -4 -108 -28 -163 -140 -122 -255 32 -92 127 -168 217 -175
21 -1 41 -5 44 -8 9 -8 -54 -287 -64 -287 -3 0 -26 12 -51 27 -189 110 -358
279 -470 468 -48 81 -77 143 -70 149 55 47 664 396 692 396 4 0 6 -71 5 -157z"/>
<path d="M478 3213 c17 -2 47 -2 65 0 17 2 3 4 -33 4 -36 0 -50 -2 -32 -4z"/>
<path d="M343 3180 c-34 -14 -28 -21 7 -9 17 6 30 13 30 15 0 6 -12 4 -37 -6z"/>
<path d="M2752 2640 c0 -14 2 -19 5 -12 2 6 2 18 0 25 -3 6 -5 1 -5 -13z"/>
<path d="M2562 2620 c7 -11 17 -20 22 -20 5 0 1 9 -9 20 -10 11 -20 20 -22 20
-2 0 2 -9 9 -20z"/>
<path d="M2583 2464 l-28 -25 33 22 c17 13 32 24 32 26 0 8 -11 1 -37 -23z"/>
<path d="M1966 2465 c-11 -8 -15 -15 -9 -15 7 0 15 5 18 10 3 6 23 10 44 10
43 0 77 -30 106 -93 10 -21 20 -36 22 -33 8 7 -34 80 -62 109 -32 31 -87 36
-119 12z"/>
<path d="M2870 2476 c0 -2 7 -7 16 -10 8 -3 12 -2 9 4 -6 10 -25 14 -25 6z"/>
<path d="M2930 2435 c13 -14 26 -25 28 -25 3 0 -5 11 -18 25 -13 14 -26 25
-28 25 -3 0 5 -11 18 -25z"/>
<path d="M1933 2425 c-3 -9 -3 -18 -1 -21 3 -3 8 4 11 16 6 23 -1 27 -10 5z"/>
<path d="M2995 2370 c47 -55 48 -56 37 -35 -6 11 -23 31 -39 45 l-28 25 30
-35z"/>
<path d="M1919 2358 l-6 -28 61 2 61 2 -52 3 c-44 3 -52 7 -55 26 -3 20 -4 19
-9 -5z"/>
<path d="M1868 2323 c7 -3 16 -2 19 1 4 3 -2 6 -13 5 -11 0 -14 -3 -6 -6z"/>
<path d="M2058 2323 c7 -3 16 -2 19 1 4 3 -2 6 -13 5 -11 0 -14 -3 -6 -6z"/>
<path d="M1793 2291 c-44 -32 -80 -76 -107 -128 -28 -55 -17 -51 14 6 39 70
45 77 105 117 27 19 45 34 39 34 -6 0 -29 -13 -51 -29z"/>
<path d="M2476 2294 c-4 -14 -5 -28 -3 -31 3 -2 8 8 11 23 4 14 5 28 3 31 -3
2 -8 -8 -11 -23z"/>
<path d="M3057 2275 c9 -19 18 -33 21 -31 4 5 -26 66 -33 66 -3 0 3 -16 12
-35z"/>
<path d="M2120 2296 c0 -2 7 -7 16 -10 8 -3 12 -2 9 4 -6 10 -25 14 -25 6z"/>
<path d="M2210 2227 c53 -56 76 -74 49 -40 -17 21 -24 28 -70 68 -18 16 -9 4
21 -28z"/>
<path d="M2297 2115 c15 -24 29 -42 31 -40 4 4 -46 85 -53 85 -2 0 8 -20 22
-45z"/>
<path d="M1744 2136 c-15 -38 13 -67 45 -47 21 13 6 61 -20 61 -11 0 -22 -6
-25 -14z"/>
<path d="M3111 2124 c0 -11 3 -14 6 -6 3 7 2 16 -1 19 -3 4 -6 -2 -5 -13z"/>
<path d="M1651 2064 c0 -11 3 -14 6 -6 3 7 2 16 -1 19 -3 4 -6 -2 -5 -13z"/>
<path d="M2336 2035 c18 -79 18 -77 32 -55 10 17 10 20 -3 20 -8 0 -15 8 -15
18 0 9 -5 24 -10 32 -8 11 -9 7 -4 -15z"/>
<path d="M2927 2054 c-4 -4 -7 -18 -7 -31 0 -21 4 -24 33 -21 27 2 32 7 32 28
0 19 -6 26 -25 28 -14 2 -29 0 -33 -4z"/>
<path d="M2462 2025 c-11 -12 -10 -15 3 -15 8 0 15 7 15 15 0 18 -2 18 -18 0z"/>
<path d="M2408 2003 c6 -2 18 -2 25 0 6 3 1 5 -13 5 -14 0 -19 -2 -12 -5z"/>
<path d="M1632 1965 c0 -16 2 -22 5 -12 2 9 2 23 0 30 -3 6 -5 -1 -5 -18z"/>
<path d="M2481 1980 c0 -8 4 -22 9 -30 12 -18 12 -2 0 25 -6 13 -9 15 -9 5z"/>
<path d="M3112 1930 c0 -14 2 -19 5 -12 2 6 2 18 0 25 -3 6 -5 1 -5 -13z"/>
<path d="M1632 1905 c0 -16 2 -22 5 -12 2 9 2 23 0 30 -3 6 -5 -1 -5 -18z"/>
<path d="M2517 1893 c10 -28 78 -115 114 -148 22 -19 17 -12 -12 20 -25 28
-58 72 -73 98 -29 48 -40 60 -29 30z"/>
<path d="M1643 1806 c9 -7 17 -19 17 -26 0 -7 3 -11 6 -7 11 11 -7 47 -24 47
-16 -1 -16 -2 1 -14z"/>
<path d="M3061 1793 c-10 -26 -10 -27 4 -9 8 11 15 23 15 28 0 15 -7 8 -19
-19z"/>
<path d="M1503 1793 c9 -2 25 -2 35 0 9 3 1 5 -18 5 -19 0 -27 -2 -17 -5z"/>
<path d="M1398 1783 c12 -2 30 -2 40 0 9 3 -1 5 -23 4 -22 0 -30 -2 -17 -4z"/>
<path d="M1303 1773 c9 -2 23 -2 30 0 6 3 -1 5 -18 5 -16 0 -22 -2 -12 -5z"/>
<path d="M1173 1753 c9 -2 23 -2 30 0 6 3 -1 5 -18 5 -16 0 -22 -2 -12 -5z"/>
<path d="M3014 1728 l-19 -23 23 19 c12 11 22 21 22 23 0 8 -8 2 -26 -19z"/>
<path d="M1680 1721 c0 -6 4 -13 10 -16 6 -3 7 1 4 9 -7 18 -14 21 -14 7z"/>
<path d="M2970 1700 c-9 -6 -10 -10 -3 -10 6 0 15 5 18 10 8 12 4 12 -15 0z"/>
<path d="M1700 1684 c0 -12 63 -95 98 -129 44 -43 126 -91 167 -100 20 -4 16
0 -15 13 -94 39 -187 118 -226 195 -14 25 -24 35 -24 21z"/>
<path d="M2788 1655 c24 -11 41 -13 65 -6 l32 9 -31 1 c-17 1 -47 3 -65 6
l-34 5 33 -15z"/>
<path d="M870 1650 c-8 -5 -10 -10 -5 -10 6 0 17 5 25 10 8 5 11 10 5 10 -5 0
-17 -5 -25 -10z"/>
<path d="M1463 1643 c-7 -2 -13 -9 -13 -15 0 -7 4 -7 13 0 7 6 35 12 62 15
l50 3 -50 1 c-27 1 -56 -1 -62 -4z"/>
<path d="M1022 1614 c1 -11 16 -30 32 -44 l31 -25 -30 40 c-16 22 -30 42 -32
44 -1 2 -1 -5 -1 -15z"/>
<path d="M2618 1607 c-3 -19 -2 -25 4 -19 6 6 8 18 6 28 -3 14 -5 12 -10 -9z"/>
<path d="M1411 1596 c-13 -14 -21 -31 -18 -38 4 -10 6 -10 6 1 1 8 11 25 23
38 12 13 19 23 16 23 -2 0 -15 -11 -27 -24z"/>
<path d="M2305 1593 c-10 -16 -29 -41 -44 -58 l-26 -30 30 27 c28 25 72 88 62
88 -3 0 -13 -12 -22 -27z"/>
<path d="M1484 1546 c-14 -11 -19 -26 -18 -64 0 -53 30 -114 85 -177 84 -96
310 -218 455 -247 32 -6 62 -16 66 -22 4 -6 7 5 7 24 -1 19 -3 27 -6 17 -4
-16 -11 -18 -51 -12 -26 4 -49 9 -52 12 -2 2 2 16 10 31 24 41 70 63 142 65
35 1 55 3 46 5 -19 4 -23 19 -10 39 4 7 39 14 82 16 53 2 41 3 -40 4 -232 2
-453 87 -541 210 -80 110 -125 135 -175 99z"/>
<path d="M2207 1499 c-9 -6 -15 -14 -12 -20 4 -5 13 -2 22 6 19 20 14 27 -10
14z"/>
<path d="M2018 1443 c12 -2 30 -2 40 0 9 3 -1 5 -23 4 -22 0 -30 -2 -17 -4z"/>
<path d="M1105 1399 c-16 -10 -25 -19 -19 -19 7 0 22 9 35 20 30 24 23 24 -16
-1z"/>
<path d="M2058 1393 c7 -3 16 -2 19 1 4 3 -2 6 -13 5 -11 0 -14 -3 -6 -6z"/>
<path d="M2378 1243 c6 -2 18 -2 25 0 6 3 1 5 -13 5 -14 0 -19 -2 -12 -5z"/>
<path d="M2205 1160 c26 -11 87 -76 111 -120 11 -19 30 -63 43 -97 24 -66 36
-83 25 -35 -12 44 -63 154 -90 189 -27 36 -30 49 -11 56 6 3 -2 3 -19 0 -18
-3 -35 0 -38 6 -4 6 -15 11 -24 10 -14 0 -13 -2 3 -9z"/>
<path d="M2333 1163 c9 -2 23 -2 30 0 6 3 -1 5 -18 5 -16 0 -22 -2 -12 -5z"/>
<path d="M2418 1153 c7 -3 16 -2 19 1 4 3 -2 6 -13 5 -11 0 -14 -3 -6 -6z"/>
<path d="M2498 1105 c13 -16 32 -41 43 -55 19 -24 19 -23 -1 11 -11 20 -30 45
-42 55 -22 19 -22 19 0 -11z"/>
<path d="M2082 990 c0 -14 2 -19 5 -12 2 6 2 18 0 25 -3 6 -5 1 -5 -13z"/>
<path d="M1075 990 c4 -6 11 -8 16 -5 14 9 11 15 -7 15 -8 0 -12 -5 -9 -10z"/>
<path d="M1020 970 c-11 -8 -7 -9 15 -4 37 8 45 14 19 14 -10 0 -26 -5 -34
-10z"/>
<path d="M1138 973 c6 -2 18 -2 25 0 6 3 1 5 -13 5 -14 0 -19 -2 -12 -5z"/>
<path d="M2572 955 c0 -16 2 -22 5 -12 2 9 2 23 0 30 -3 6 -5 -1 -5 -18z"/>
<path d="M965 950 c-11 -5 -15 -9 -9 -9 6 -1 14 -18 18 -39 3 -21 15 -47 26
-57 11 -10 20 -24 20 -32 0 -7 7 -13 15 -13 21 0 19 5 -15 40 -35 36 -47 76
-31 102 12 20 7 21 -24 8z"/>
<path d="M2088 949 c-3 -8 1 -20 8 -27 15 -14 17 -7 5 22 -6 15 -9 16 -13 5z"/>
<path d="M670 935 c14 -8 30 -14 35 -14 6 0 -1 6 -15 14 -14 8 -29 14 -35 14
-5 0 1 -6 15 -14z"/>
<path d="M1278 933 c7 -3 16 -2 19 1 4 3 -2 6 -13 5 -11 0 -14 -3 -6 -6z"/>
<path d="M720 917 c0 -3 12 -12 26 -22 15 -9 23 -12 20 -6 -7 11 -46 35 -46
28z"/>
<path d="M1398 881 c23 -23 42 -47 42 -54 0 -7 -21 -24 -46 -37 -46 -25 -94
-84 -94 -116 0 -9 9 -18 20 -21 17 -4 20 -14 20 -57 0 -73 8 -81 56 -61 71 30
104 75 134 183 10 38 14 43 33 38 12 -3 39 -6 60 -6 29 0 40 -5 48 -22 7 -17
8 -3 3 47 -3 39 -6 80 -7 93 -2 19 -7 22 -47 21 -44 -2 -44 -2 -10 -8 47 -8
55 -41 11 -41 -24 0 -34 6 -43 25 -12 27 -21 31 -113 40 -33 4 -71 9 -85 12
-22 5 -20 1 18 -36z"/>
<path d="M621 894 c0 -11 3 -14 6 -6 3 7 2 16 -1 19 -3 4 -6 -2 -5 -13z"/>
<path d="M800 890 c-18 -12 -2 -12 25 0 13 6 15 9 5 9 -8 0 -22 -4 -30 -9z"/>
<path d="M1863 893 c9 -2 25 -2 35 0 9 3 1 5 -18 5 -19 0 -27 -2 -17 -5z"/>
<path d="M2111 890 c-1 -20 35 -89 63 -118 20 -22 76 -58 76 -48 0 2 -16 13
-34 24 -36 21 -75 74 -94 127 -6 17 -11 23 -11 15z"/>
<path d="M2582 875 c0 -16 2 -22 5 -12 2 9 2 23 0 30 -3 6 -5 -1 -5 -18z"/>
<path d="M2551 807 c-14 -16 -48 -41 -75 -54 -28 -13 -40 -21 -26 -17 40 10
109 53 121 75 16 32 7 30 -20 -4z"/>
<path d="M1065 820 c-3 -5 -2 -10 4 -10 5 0 13 5 16 10 3 6 2 10 -4 10 -5 0
-13 -4 -16 -10z"/>
<path d="M960 791 c-22 -6 -23 -8 -7 -14 11 -4 27 -1 40 8 23 16 11 18 -33 6z"/>
<path d="M888 763 c7 -3 16 -2 19 1 4 3 -2 6 -13 5 -11 0 -14 -3 -6 -6z"/>
<path d="M838 753 c7 -3 16 -2 19 1 4 3 -2 6 -13 5 -11 0 -14 -3 -6 -6z"/>
<path d="M788 743 c6 -2 18 -2 25 0 6 3 1 5 -13 5 -14 0 -19 -2 -12 -5z"/>
<path d="M889 663 c-53 -81 -80 -133 -69 -133 5 0 12 10 15 23 12 38 56 90 68
78 9 -9 0 -26 -65 -124 -4 -7 -12 -6 -22 2 -30 25 -16 -5 15 -32 31 -27 31
-28 15 -55 l-17 -27 20 24 21 23 35 -26 c19 -15 35 -31 35 -37 0 -5 8 -9 18
-9 22 -1 75 -47 67 -60 -3 -6 1 -7 9 -4 23 9 79 -34 71 -55 -5 -12 -4 -13 6
-4 9 9 19 9 45 -2 32 -13 35 -12 96 27 35 22 76 52 92 65 29 24 29 24 4 18
-21 -6 -44 8 -134 77 -117 89 -122 93 -229 166 -38 26 -74 50 -79 54 -7 4 -2
19 13 38 12 17 21 33 19 36 -2 2 -24 -27 -49 -63z m124 -105 c19 -10 126 -87
151 -109 13 -12 -32 -59 -56 -59 -10 0 -21 7 -24 15 -4 8 -11 15 -17 15 -5 0
-2 -9 8 -20 17 -19 17 -21 0 -40 -27 -30 -45 -25 -111 28 -33 26 -72 57 -88
70 -27 21 -28 24 -16 47 26 49 49 65 91 65 22 0 50 -5 62 -12z m203 -149 c6
-10 -41 -58 -59 -59 -21 -1 -18 34 4 51 28 21 45 24 55 8z m94 -79 c0 -4 -26
-24 -57 -44 -65 -41 -81 -41 -144 1 -44 29 -48 42 -18 61 18 12 25 10 54 -12
34 -26 59 -36 38 -15 -9 9 -3 19 25 39 l37 27 33 -25 c17 -13 32 -28 32 -32z"/>
<path d="M2293 713 c20 -2 54 -2 75 0 20 2 3 4 -38 4 -41 0 -58 -2 -37 -4z"/>
<path d="M1589 657 c-9 -7 -30 -38 -48 -69 -18 -31 -39 -62 -46 -68 -8 -7 -15
-17 -15 -23 0 -5 10 3 23 19 l22 29 6 -40 c6 -38 6 -37 8 15 2 69 27 108 58
91 32 -17 83 -10 83 12 0 17 -1 17 -16 3 -17 -18 -42 -20 -64 -6 -12 8 -13 13
-2 30 14 23 13 24 -9 7z"/>
<path d="M1661 544 c0 -11 3 -14 6 -6 3 7 2 16 -1 19 -3 4 -6 -2 -5 -13z"/>
<path d="M1650 485 c0 -8 4 -15 10 -15 5 0 7 7 4 15 -4 8 -8 15 -10 15 -2 0
-4 -7 -4 -15z"/>
<path d="M1610 380 c0 -11 2 -20 4 -20 2 0 6 9 9 20 3 11 1 20 -4 20 -5 0 -9
-9 -9 -20z"/>
<path d="M757 314 c-7 -8 33 -84 44 -84 4 0 9 7 12 14 4 10 1 13 -8 10 -15 -6
-49 49 -38 60 4 3 4 6 1 6 -2 0 -8 -3 -11 -6z"/>
<path d="M842 277 c-8 -10 -6 -13 7 -13 11 0 17 6 14 13 -3 7 -6 13 -8 13 -1
0 -7 -6 -13 -13z"/>
<path d="M979 253 c-13 -16 -12 -17 4 -4 16 13 21 21 13 21 -2 0 -10 -8 -17
-17z"/>
<path d="M945 220 c-3 -5 -2 -10 4 -10 5 0 13 5 16 10 3 6 2 10 -4 10 -5 0
-13 -4 -16 -10z"/>
<path d="M1055 210 c-3 -5 1 -10 9 -10 9 0 16 5 16 10 0 6 -4 10 -9 10 -6 0
-13 -4 -16 -10z"/>
<path d="M845 199 c-4 -6 -13 -8 -21 -5 -8 3 -11 0 -7 -10 7 -19 16 -18 31 6
7 11 10 20 8 20 -3 0 -8 -5 -11 -11z"/>
<path d="M1011 171 c-8 -5 -9 -11 -3 -15 5 -3 12 1 16 9 6 17 6 18 -13 6z"/>
<path d="M1078 153 c7 -3 16 -2 19 1 4 3 -2 6 -13 5 -11 0 -14 -3 -6 -6z"/>
<path d="M711 84 c0 -11 3 -14 6 -6 3 7 2 16 -1 19 -3 4 -6 -2 -5 -13z"/>
</g>
</svg>
